# Blender v2.74 (sub 0) OBJ File: 'skybox01.blend'
# www.blender.org
mtllib skybox01.mtl
o Cube
v 19.999990 -10.000000 -19.999990
v 19.999990 -10.000000 19.999990
v -19.999996 -10.000000 19.999987
v -19.999987 -10.000000 -19.999998
v 19.999998 30.000000 -19.999981
v 19.999979 30.000000 20.000002
v -20.000002 30.000000 19.999983
v -19.999992 30.000000 -19.999990
vt 0.490234 0.875887
vt 0.255934 0.875887
vt 0.255934 0.625930
vt 0.490234 0.625930
vt 0.490235 0.126017
vt 0.490234 0.375974
vt 0.255935 0.375973
vt 0.255935 0.126017
vt 0.724534 0.625930
vt 0.724534 0.375974
vt 0.021635 0.625930
vt 0.021635 0.375973
vt 0.958834 0.375974
vt 0.958834 0.625930
vn 0.000000 1.000000 0.000000
vn 0.000000 -1.000000 -0.000000
vn -1.000000 -0.000000 -0.000000
vn 0.000000 0.000000 -1.000000
vn 1.000000 0.000000 0.000000
vn -0.000000 -0.000000 1.000000
usemtl Material
s off
f 1/1/1 4/2/1 3/3/1 2/4/1
f 5/5/2 6/6/2 7/7/2 8/8/2
f 1/9/3 2/4/3 6/6/3 5/10/3
f 2/4/4 3/3/4 7/7/4 6/6/4
f 3/3/5 4/11/5 8/12/5 7/7/5
f 5/10/6 8/13/6 4/14/6 1/9/6
